# xmcd
#
# Track frame offsets: 
#        150
#        11297
#        24845
#        37123
#        47430
#        59363
#        71459
#        87712
#        102301
#        118394
#        132901
#        141943
#        156948
#        170695
#        184441
#        196587
#        208805
#        221098
#        233345
#        242786
#        255461
#        267941
#
# Disc length: 3779 seconds
#
# Revision: 1
# Processed by: cddbd v1.5.2PL0 Copyright (c) Steve Scherf et al.
# Submitted via: ExactAudioCopy v0.99pb4
#
DISCID=400ec116
DTITLE=Claude Nougaro - Sa majeste le jazz
DYEAR=2009
DGENRE=Jazz
TTITLE0=Le jazz et la java
TTITLE1=Le cinéma
TTITLE2=Ouh! (Allez-y les bergeres)
TTITLE3=Le rouge et le noir (Enseigne au néon)
TTITLE4=Le paradis
TTITLE5=A la mode
TTITLE6=A l'église
TTITLE7=Regarde-moi
TTITLE8=Sensuel
TTITLE9=Mon assassin
TTITLE10=Les mains d'une femme dans la farine (Gravy waltz)
TTITLE11=Armstrong (Let my people go)
TTITLE12=A bout de souffle (Blue rondo à la turk)
TTITLE13=Côte d'azur
TTITLE14=Tu dormiras longtemps
TTITLE15=Sing sing song (Work song)
TTITLE16=Une bouteille a la mer
TTITLE17=La mutation
TTITLE18=A tes seins (Saint Thomas)
TTITLE19=Quatre boules de cuir
TTITLE20=La maîtresse
TTITLE21=La pluie fait des claquettes
EXTD=YEAR: 2009
EXTT0=
EXTT1=
EXTT2=
EXTT3=
EXTT4=
EXTT5=
EXTT6=
EXTT7=
EXTT8=
EXTT9=
EXTT10=
EXTT11=
EXTT12=
EXTT13=
EXTT14=
EXTT15=
EXTT16=
EXTT17=
EXTT18=
EXTT19=
EXTT20=
EXTT21=
PLAYORDER=
